<?xml version="1.0" encoding="UTF-8"?>
<svg width="221px" height="489px" viewBox="0 0 221 489" version="1.1" xmlns="http://www.w3.org/2000/svg" xmlns:xlink="http://www.w3.org/1999/xlink">
    <!-- Generator: Sketch 47.1 (45422) - http://www.bohemiancoding.com/sketch -->
    <title>Group 3</title>
    <desc>Created with Sketch.</desc>
    <defs></defs>
    <g id="Master" stroke="none" stroke-width="1" fill="none" fill-rule="evenodd">
        <g id="Generator-Copy-2" transform="translate(-410.000000, -782.000000)">
            <g id="Group-3" transform="translate(410.000000, 782.000000)">
                <rect id="Rectangle-2" stroke="#FFFFFF" x="0.5" y="0.5" width="220" height="332"></rect>
                <path d="M23.23,482.61 L10.495,482.61 L8.245,489 L1.54,489 L13.24,457.59 L20.485,457.59 L32.14,489 L25.435,489 L23.23,482.61 Z M21.52,477.795 L16.84,464.385 L12.16,477.795 L21.52,477.795 Z M54.235,489 L47.08,478.155 L40.735,489 L33.49,489 L43.48,472.755 L33.22,457.23 L40.735,457.23 L47.755,467.85 L54.01,457.23 L61.255,457.23 L51.31,473.205 L61.75,489 L54.235,489 Z M71.515,457.23 L71.515,489 L65.17,489 L65.17,457.23 L71.515,457.23 Z M103.24,481.395 C101.919993,483.795012 100.007513,485.662493 97.5025,486.9975 C94.9974875,488.332507 92.0200172,489 88.57,489 L77.275,489 L77.275,457.23 L88.57,457.23 C92.0200172,457.23 94.9974875,457.882493 97.5025,459.1875 C100.007513,460.492507 101.919993,462.337488 103.24,464.7225 C104.560007,467.107512 105.22,469.889984 105.22,473.07 C105.22,476.220016 104.560007,478.994988 103.24,481.395 Z M95.9725,480.63 C97.8475094,478.829991 98.785,476.310016 98.785,473.07 C98.785,469.799984 97.8475094,467.265009 95.9725,465.465 C94.0974906,463.664991 91.4500171,462.765 88.03,462.765 L83.62,462.765 L83.62,483.33 L88.03,483.33 C91.4500171,483.33 94.0974906,482.430009 95.9725,480.63 Z M126.55,489 L119.125,476.625 L116.335,476.625 L116.335,489 L109.99,489 L109.99,457.23 L122.095,457.23 C125.785018,457.23 128.59749,458.129991 130.5325,459.93 C132.46751,461.730009 133.435,464.099985 133.435,467.04 C133.435,469.440012 132.767507,471.449992 131.4325,473.07 C130.097493,474.690008 128.170013,475.769997 125.65,476.31 L133.57,489 L126.55,489 Z M116.335,472.26 L121.555,472.26 C125.185018,472.26 127,470.655016 127,467.445 C127,465.914992 126.557504,464.722504 125.6725,463.8675 C124.787496,463.012496 123.415009,462.585 121.555,462.585 L116.335,462.585 L116.335,472.26 Z M157.06,482.61 L144.325,482.61 L142.075,489 L135.37,489 L147.07,457.59 L154.315,457.59 L165.97,489 L159.265,489 L157.06,482.61 Z M155.35,477.795 L150.67,464.385 L145.99,477.795 L155.35,477.795 Z M211.06,457.23 L203.275,489 L195.445,489 L189.505,465.96 L183.52,489 L175.735,489 L167.95,457.23 L174.835,457.23 L179.695,481.845 L185.995,457.23 L192.97,457.23 L199.315,481.845 L204.175,457.23 L211.06,457.23 Z" id="AXIDRAW" fill="#FFFFFF"></path>
                <text id="+" font-family="Poppins-SemiBold, Poppins" font-size="45" font-weight="500" fill="#FFFFFF">
                    <tspan x="98" y="409">+</tspan>
                </text>
            </g>
        </g>
    </g>
</svg>