<?xml version="1.0" encoding="UTF-8"?>
<svg width="189px" height="98px" viewBox="0 0 189 98" version="1.1" xmlns="http://www.w3.org/2000/svg" xmlns:xlink="http://www.w3.org/1999/xlink">
    <g id="Master" stroke="none" stroke-width="1" fill="none" fill-rule="evenodd">
        <g id="Generator" transform="translate(-622.000000, -40.000000)" fill="#000000">
            <g id="Group-2" transform="translate(622.000000, 40.000000)">
                <path d="M0,16 C0,25.3777778 5.93930636,32 15.6069364,32 C23.5404624,32 27.8757225,27.2444444 30,23.4666667 L30,13.6 L14.349711,13.6 L14.349711,20.5777778 L22.0231214,20.5777778 C20.5924855,22.5333333 18.8150289,23.3333333 16.6473988,23.3333333 C11.9219653,23.3333333 9.75433526,20.8888889 9.75433526,16 C9.75433526,11.8222222 11.8352601,9.11111111 15.5635838,9.11111111 C17.5578035,9.11111111 18.9450867,9.86666667 19.6820809,11.0666667 L29.8265896,11.0666667 C28.916185,4.35555556 23.6705202,0 15.5202312,0 C5.89595376,0 0,6.62222222 0,16 Z" id="G"></path>
                <polygon id="I" points="10 67 10 98 20 98 20 67"></polygon>
                <path d="M172.903469,67 C182.788839,67 189,73.480226 189,82.4124294 C189,91.2570621 182.788839,98 172.903469,98 L160,98 L160,67 L172.903469,67 Z M172.028658,89.3305085 C176.315234,89.3305085 179.158371,86.9223164 179.158371,82.4124294 C179.158371,77.9025424 176.315234,75.4943503 172.028658,75.4943503 L169.710407,75.4943503 L169.710407,89.3305085 L172.028658,89.3305085 Z" id="D"></path>
                <polygon id="E" points="106 7.70621469 106 0 85 0 85 31 106 31 106 23.25 94.8771186 23.25 94.8771186 18.8714689 104.665254 18.8714689 104.665254 11.559322 94.8771186 11.559322 94.8771186 7.70621469"></polygon>
                <polygon id="N" points="188 0 178.191458 0 178.191458 15.8502825 167.808542 0 158 0 158 31 167.808542 31 167.808542 15.4124294 178.191458 31 188 31"></polygon>
                <circle id="Oval-3" cx="95.5" cy="85.5" r="4.5"></circle>
            </g>
        </g>
    </g>
</svg>